<svg xmlns="http://www.w3.org/2000/svg">
  <symbol id="email-icon" viewBox="0 0 24 24">
    <rect x="3" y="5" width="18" height="14" rx="3" fill="none" stroke="#0e0e0e" stroke-width="1.8"/>
    <path d="m5 8 7 5 7-5" fill="none" stroke="#e49366" stroke-width="1.8" stroke-linecap="round" stroke-linejoin="round"/>
  </symbol>
  <symbol id="linkedin-icon" viewBox="0 0 24 24">
    <rect x="4" y="4" width="16" height="16" rx="3" fill="none" stroke="#0e0e0e" stroke-width="1.8"/>
    <circle cx="8" cy="9" r="1.2" fill="#e49366"/>
    <path d="M7.2 11.2V17M11.2 17v-3.3c0-1.5.9-2.5 2.2-2.5 1.2 0 1.9.8 1.9 2.3V17M11.2 12.2v-1" fill="none" stroke="#0e0e0e" stroke-width="1.8" stroke-linecap="round" stroke-linejoin="round"/>
  </symbol>
  <symbol id="instagram-icon" viewBox="0 0 24 24">
    <rect x="4" y="4" width="16" height="16" rx="5" fill="none" stroke="#0e0e0e" stroke-width="1.8"/>
    <circle cx="12" cy="12" r="3.5" fill="none" stroke="#e49366" stroke-width="1.8"/>
    <circle cx="16.4" cy="7.8" r="1" fill="#0e0e0e"/>
  </symbol>
  <symbol id="whatsapp-icon" viewBox="0 0 24 24">
    <path d="M12 4a8 8 0 0 0-6.8 12.2L4 20l3.9-1.1A8 8 0 1 0 12 4Z" fill="none" stroke="#0e0e0e" stroke-width="1.8" stroke-linejoin="round"/>
    <path d="M9.4 9.1c.2-.4.5-.5.8-.5h.5c.2 0 .4.1.5.4l.7 1.5c.1.2.1.4 0 .6l-.3.5c-.1.2-.1.4 0 .5.4.7 1 1.3 1.7 1.7.2.1.4.1.5 0l.5-.3c.2-.1.4-.1.6 0l1.5.7c.3.1.4.3.4.5v.5c0 .3-.1.6-.5.8-.4.2-1 .3-1.6.1-2-.5-4.4-2.9-4.9-4.9-.2-.6-.1-1.2.1-1.6Z" fill="#e49366"/>
  </symbol>
  <symbol id="membership-icon" viewBox="0 0 24 24">
    <path d="M12 4 5 7.2v4.8c0 4.2 2.8 6.7 7 8 4.2-1.3 7-3.8 7-8V7.2Z" fill="none" stroke="#0e0e0e" stroke-width="1.8" stroke-linejoin="round"/>
    <path d="M9.4 12.2 11 13.8l3.8-3.8" fill="none" stroke="#e49366" stroke-width="1.8" stroke-linecap="round" stroke-linejoin="round"/>
  </symbol>
</svg>
